
#
# '/mnt/sdcard/Download/cds-data/audio/Track_17 (90s 64kbps).mp3'
#
General
Count                                    : 284
Count of stream of this kind             : 1
Kind of stream                           : General
Kind of stream                           : General
Stream identifier                        : 0
Count of audio streams                   : 1
Audio_Format_List                        : MPEG Audio
Audio_Format_WithHint_List               : MPEG Audio
Audio codecs                             : MPEG-2 Audio layer 3
Complete name                            : /mnt/sdcard/Download/cds-data/audio/Track_17 (90s 64kbps).mp3
Folder name                              : /mnt/sdcard/Download/cds-data/audio
File name                                : Track_17 (90s 64kbps)
File extension                           : mp3
Format                                   : MPEG Audio
Format                                   : MPEG Audio
Format/Extensions usually used           : m1a mpa1 mp1 m2a mpa2 mp2 mp3
Commercial name                          : MPEG Audio
Internet media type                      : audio/mpeg
Codec                                    : MPEG Audio
Codec                                    : MPEG Audio
Codec/Extensions usually used            : m1a mpa1 mp1 m2a mpa2 mp2 mp3
File size                                : 720704
File size                                : 704 KiB
File size                                : 704 KiB
File size                                : 704 KiB
File size                                : 704 KiB
File size                                : 703.8 KiB
Duration                                 : 90048
Duration                                 : 1mn 30s
Duration                                 : 1mn 30s 48ms
Duration                                 : 1mn 30s
Duration                                 : 00:01:30.048
Overall bit rate mode                    : CBR
Overall bit rate mode                    : Constant
Overall bit rate                         : 64000
Overall bit rate                         : 64.0 Kbps
Stream size                              : 128
Stream size                              : 128 Bytes (0%)
Stream size                              : 128 Bytes
Stream size                              : 128 Bytes
Stream size                              : 128 Bytes
Stream size                              : 128.0 Bytes
Stream size                              : 128 Bytes (0%)
Proportion of this stream                : 0.00018
Title                                    : Track_17
Album                                    : Album_1
Track name                               : Track_17
Performer                                : Andrew
File last modification date              : UTC 2014-11-26 06:29:52
File last modification date (local)      : 2014-11-26 15:29:52
Writing library                          : LAME3.99r
Writing library                          : LAME3.99r

Audio
Count                                    : 222
Count of stream of this kind             : 1
Kind of stream                           : Audio
Kind of stream                           : Audio
Stream identifier                        : 0
Format                                   : MPEG Audio
Commercial name                          : MPEG Audio
Format version                           : Version 2
Format profile                           : Layer 3
Format settings                          : Joint stereo / MS Stereo
Mode                                     : Joint stereo
Mode extension                           : MS Stereo
Internet media type                      : audio/mpeg
Codec                                    : MPA2L3
Codec                                    : MPEG-2 Audio layer 3
Codec profile                            : Joint stereo
Duration                                 : 90048
Duration                                 : 1mn 30s
Duration                                 : 1mn 30s 48ms
Duration                                 : 1mn 30s
Duration                                 : 00:01:30.048
Bit rate mode                            : CBR
Bit rate mode                            : Constant
Bit rate                                 : 64000
Bit rate                                 : 64.0 Kbps
Channel(s)                               : 2
Channel(s)                               : 2 channels
Sampling rate                            : 24000
Sampling rate                            : 24.0 KHz
Samples count                            : 2161152
Frame count                              : 3752
Compression mode                         : Lossy
Compression mode                         : Lossy
Stream size                              : 720384
Stream size                              : 704 KiB (100%)
Stream size                              : 704 KiB
Stream size                              : 704 KiB
Stream size                              : 704 KiB
Stream size                              : 703.5 KiB
Stream size                              : 704 KiB (100%)
Proportion of this stream                : 0.99956
Writing library                          : LAME3.99r
Writing library                          : LAME3.99r
Encoding settings                        : -m j -V 4 -q 3 -lowpass 11 -b 64

